<?xml version="1.0" encoding="utf-8"?>
<!-- Generator: Adobe Illustrator 26.3.1, SVG Export Plug-In . SVG Version: 6.00 Build 0)  -->
<svg version="1.1" id="Layer_1" xmlns="http://www.w3.org/2000/svg" xmlns:xlink="http://www.w3.org/1999/xlink" x="0px" y="0px"
	 viewBox="0 0 1920 435" style="enable-background:new 0 0 1920 435;" xml:space="preserve">
<style type="text/css">
	.st0{fill:#67677C;}
	.st1{fill:#E1216C;}
	.st2{fill:#FFFFFF;}
</style>
<g>
	<g>
		<g>
			<path class="st2" d="M1638.17,387.79h-120.6c-12.37,0-22.39-10.02-22.39-22.39V111.64c0-12.37,10.02-22.39,22.39-22.39
				s22.39,10.02,22.39,22.39V343h98.21c12.37,0,22.39,10.02,22.39,22.39C1660.56,377.76,1650.53,387.79,1638.17,387.79z"/>
		</g>
		<path class="st2" d="M908.82,343H810.6v-82.18h82.07c12.37,0,22.39-10.02,22.39-22.39c0-12.37-10.02-22.39-22.39-22.39H810.6
			v-82.02h98.21c12.37,0,22.39-10.02,22.39-22.39s-10.02-22.39-22.39-22.39H788.21c-12.37,0-22.39,10.02-22.39,22.39V365.4
			c0,12.37,10.02,22.39,22.39,22.39h120.61c12.37,0,22.39-10.02,22.39-22.39C931.21,353.03,921.18,343,908.82,343z"/>
		<path class="st2" d="M1103.79,238.52l68.85-115.41c6.34-10.62,2.86-24.36-7.76-30.7c-10.62-6.34-24.37-2.86-30.7,7.76
			l-56.46,94.65l-56.46-94.65c-6.34-10.62-20.08-14.09-30.7-7.76c-10.62,6.33-14.09,20.08-7.76,30.7l68.85,115.41l-68.85,115.41
			c-6.34,10.62-2.86,24.36,7.76,30.7c3.6,2.14,7.55,3.17,11.45,3.17c7.63,0,15.06-3.9,19.25-10.92l56.46-94.65l56.46,94.65
			c4.19,7.03,11.62,10.92,19.25,10.92c3.9,0,7.86-1.02,11.45-3.17c10.62-6.33,14.09-20.08,7.76-30.7L1103.79,238.52z"/>
		<g>
			<path class="st2" d="M1367.84,387.79h-72.72c-34.81,0-63.12-28.32-63.12-63.12v-172.3c0-34.81,28.32-63.12,63.12-63.12h72.72
				c34.81,0,63.12,28.32,63.12,63.12v172.3C1430.96,359.47,1402.64,387.79,1367.84,387.79z M1295.12,134.03
				c-10.11,0-18.34,8.23-18.34,18.34v172.3c0,10.11,8.23,18.34,18.34,18.34h72.72c10.11,0,18.34-8.23,18.34-18.34v-172.3
				c0-10.11-8.23-18.34-18.34-18.34H1295.12z"/>
		</g>
		<g>
			<path class="st2" d="M1836.45,387.79h-72.72c-34.81,0-63.12-28.32-63.12-63.12v-172.3c0-34.81,28.32-63.12,63.12-63.12h72.72
				c34.81,0,63.12,28.32,63.12,63.12v172.3C1899.57,359.47,1871.26,387.79,1836.45,387.79z M1763.73,134.03
				c-10.11,0-18.34,8.23-18.34,18.34v172.3c0,10.11,8.23,18.34,18.34,18.34h72.72c10.11,0,18.34-8.23,18.34-18.34v-172.3
				c0-10.11-8.23-18.34-18.34-18.34H1763.73z"/>
		</g>
	</g>
	<path class="st1" d="M333.44,408.92c79.83-0.01,154.79-31.02,211.08-87.31l84.44-84.44c23.32-23.32,23.32-61.12,0-84.44
		L502.3,279.39c-11.66-11.66-11.66-30.56,0-42.21l63.33-63.33c23.32-23.32,23.32-61.12,0-84.44L438.97,216.07
		c-11.66-11.66-11.66-30.56,0-42.21l63.34-63.33c23.32-23.32,23.32-61.12,0-84.44L375.65,152.74
		c-11.64,11.64-26.92,17.46-42.21,17.46c-15.29,0-30.58-5.82-42.21-17.46L164.56,26.08c-23.32,23.32-23.32,61.12,0,84.44
		l63.34,63.33c11.66,11.66,11.66,30.56,0,42.21L101.24,89.41c-23.32,23.32-23.32,61.12,0,84.44l63.33,63.33
		c11.66,11.66,11.66,30.56,0,42.21L37.91,152.73c-23.32,23.32-23.32,61.12,0,84.44l84.44,84.44
		C178.65,377.9,253.61,408.91,333.44,408.92z"/>
</g>
</svg>
